HIERARCHY
ROOT Hips
{
	OFFSET -0.001795 -0.223333 0.028219
	CHANNELS 6 Xposition Yposition Zposition Zrotation Yrotation Xrotation 
	JOINT LeftUpLeg
	{
		OFFSET 0.069520 -0.091406 -0.006815
		CHANNELS 3 Zrotation Yrotation Xrotation
		JOINT LeftLeg
		{
			OFFSET 0.034277 -0.375199 -0.004496
			CHANNELS 3 Zrotation Yrotation Xrotation
			JOINT LeftFoot
			{
				OFFSET -0.013596 -0.397961 -0.043693
				CHANNELS 3 Zrotation Yrotation Xrotation
				JOINT LeftToe
				{
					OFFSET 0.026358 -0.055791 0.119288
					CHANNELS 3 Zrotation Yrotation Xrotation
					End Site
					{
						OFFSET 0.000000 0.000000 0.000000
					}
				}
			}
		}
	}
	JOINT RightUpLeg
	{
		OFFSET -0.067670 -0.090522 -0.004320
		CHANNELS 3 Zrotation Yrotation Xrotation
		JOINT RightLeg
		{
			OFFSET -0.038290 -0.382569 -0.008850
			CHANNELS 3 Zrotation Yrotation Xrotation
			JOINT RightFoot
			{
				OFFSET 0.015774 -0.398415 -0.042312
				CHANNELS 3 Zrotation Yrotation Xrotation
				JOINT RightToe
				{
					OFFSET -0.025372 -0.048144 0.123348
					CHANNELS 3 Zrotation Yrotation Xrotation
					End Site
					{
						OFFSET 0.000000 0.000000 0.000000
					}
				}
			}
		}
	}
	JOINT Spine
	{
		OFFSET -0.002533 0.108963 -0.026696
		CHANNELS 3 Zrotation Yrotation Xrotation
		JOINT Spine1
		{
			OFFSET 0.005487 0.135180 0.001092
			CHANNELS 3 Zrotation Yrotation Xrotation
			JOINT Spine2
			{
				OFFSET 0.001457 0.052922 0.025425
				CHANNELS 3 Zrotation Yrotation Xrotation
				JOINT Neck
				{
					OFFSET -0.002778 0.213870 -0.042857
					CHANNELS 3 Zrotation Yrotation Xrotation
					JOINT Head
					{
						OFFSET 0.005152 0.064970 0.051349
						CHANNELS 3 Zrotation Yrotation Xrotation
						End Site
						{
							OFFSET 0.000000 0.000000 0.000000
						}
					}
				}
				JOINT LeftShoulder
				{
					OFFSET 0.078845 0.121749 -0.034090
					CHANNELS 3 Zrotation Yrotation Xrotation
					JOINT LeftArm
					{
						OFFSET 0.090977 0.030469 -0.008868
						CHANNELS 3 Zrotation Yrotation Xrotation
						JOINT LeftForeArm
						{
							OFFSET 0.259612 -0.012772 -0.027456
							CHANNELS 3 Zrotation Yrotation Xrotation
							JOINT LeftHand
							{
								OFFSET 0.249234 0.008986 -0.001171
								CHANNELS 3 Zrotation Yrotation Xrotation
								End Site
								{
									OFFSET 0.000000 0.000000 0.000000
								}
							}
						}
					}
				}
				JOINT RightShoulder
				{
					OFFSET -0.081759 0.118833 -0.038615
					CHANNELS 3 Zrotation Yrotation Xrotation
					JOINT RightArm
					{
						OFFSET -0.096012 0.032551 -0.009143
						CHANNELS 3 Zrotation Yrotation Xrotation
						JOINT RightForeArm
						{
							OFFSET -0.253742 -0.013329 -0.021401
							CHANNELS 3 Zrotation Yrotation Xrotation
							JOINT RightHand
							{
								OFFSET -0.255298 0.007772 -0.005559
								CHANNELS 3 Zrotation Yrotation Xrotation
								End Site
								{
									OFFSET 0.000000 0.000000 0.000000
								}
							}
						}
					}
				}
			}
		}
	}
}
MOTION
Frames: 16
Frame Time: 0.050000
0.000000 0.960935 0.000000 -0.563403 -2.533013 5.876109 6.511548 -0.522786 -11.974772 0.151360 -0.254429 7.413498 4.141165 12.282882 20.464610 0.000000 0.000000 0.000000 -6.168517 1.010813 -15.350135 -1.264224 0.311945 3.546905 0.300249 -8.516357 24.693323 0.000000 0.000000 0.000000 5.667001 -0.653071 5.507185 -2.646144 1.177109 -11.709094 -0.104211 3.566673 20.842307 5.444873 -0.581783 -30.478920 0.000000 0.000000 0.000000 -5.475325 -7.924428 2.717525 -65.232326 -3.338206 -7.847692 -119.255535 -38.338372 68.610334 0.000000 0.000000 0.000000 5.127005 3.485922 1.252882 67.409123 9.161569 -2.600232 117.660045 39.614922 69.267739 0.000000 0.000000 0.000000 
0.027036 0.959188 -0.004572 -1.849340 -3.763638 6.182030 6.359247 -0.493239 -11.399301 -0.506605 -0.120606 7.273312 5.609957 13.742360 16.642413 0.000000 0.000000 0.000000 -6.629795 1.024693 -15.603172 -0.543898 0.232905 3.825093 -0.140994 -9.151848 23.601496 0.000000 0.000000 0.000000 7.139885 -0.744057 5.314452 -3.899927 1.588651 -11.682693 0.581623 4.729183 20.150652 7.094032 -1.391696 -29.838875 0.000000 0.000000 0.000000 -5.700016 -7.464867 2.488180 -65.039849 -1.587404 -8.775134 -123.783133 -37.558804 72.211495 0.000000 0.000000 0.000000 4.481056 1.956834 0.658698 68.701319 7.561058 -3.401931 124.220667 37.998774 74.686897 0.000000 0.000000 0.000000 
0.055319 0.956765 -0.009755 -1.924076 -5.002211 5.388137 5.184477 -0.489873 -9.549777 -0.758420 -0.049681 6.543833 5.589485 13.290610 13.698434 0.000000 0.000000 0.000000 -7.193806 1.033395 -16.262866 -1.566980 0.472820 5.583442 -0.029936 -9.285014 23.756655 0.000000 0.000000 0.000000 7.029452 -0.578796 4.010102 -3.021318 1.273224 -9.648858 -0.464113 5.893324 19.355610 7.164563 -1.595463 -27.675724 0.000000 0.000000 0.000000 -3.880272 -6.756776 2.193382 -64.519662 -1.908400 -8.569780 -122.903939 -37.905679 71.030735 0.000000 0.000000 0.000000 5.486754 3.168401 1.169327 67.558417 6.422994 -3.955416 126.435248 40.076717 80.840218 0.000000 0.000000 0.000000 
0.082885 0.956187 -0.015190 -1.758510 -5.478437 4.588864 2.739779 -0.575912 -8.245418 -0.215079 -0.141274 6.510205 6.021051 13.611651 9.753066 0.000000 0.000000 0.000000 -9.514648 0.824266 -16.151741 -1.253690 0.511080 6.970408 -0.215412 -9.106111 21.676955 0.000000 0.000000 0.000000 6.351015 -0.495254 3.740650 -2.703062 1.162202 -8.100726 -0.316908 5.141949 19.060907 5.737536 -1.256146 -25.204596 0.000000 0.000000 0.000000 -3.569337 -6.434701 2.136811 -65.788674 0.850785 -10.132524 -126.149759 -37.658220 75.362106 0.000000 0.000000 0.000000 3.468993 3.269152 1.144353 69.710451 5.677088 -4.535969 128.655159 41.666056 85.524242 0.000000 0.000000 0.000000 
0.106777 0.959370 -0.019997 -1.577354 -4.967253 3.885523 0.885537 -0.592687 -7.015474 -0.120827 -0.119563 4.763622 6.754473 14.969140 11.142873 0.000000 0.000000 0.000000 -10.552981 0.704066 -16.639850 -0.275907 0.486541 9.496171 -1.503529 -10.923936 21.430713 0.000000 0.000000 0.000000 5.811804 -0.451129 3.695630 -2.079335 0.935458 -6.487346 -0.358528 4.046951 17.701784 4.814513 -0.991143 -23.707819 0.000000 0.000000 0.000000 -2.676727 -5.459677 1.817029 -66.905762 3.813034 -11.766122 -126.293650 -36.793981 74.401763 0.000000 0.000000 0.000000 2.418219 3.259244 1.108223 69.366436 4.276181 -5.353554 129.023509 41.370463 84.451561 0.000000 0.000000 0.000000 
0.125254 0.964077 -0.023524 -1.644064 -5.625162 3.568447 -0.276532 -0.585376 -6.293885 -0.358118 -0.054584 3.757619 6.503963 14.566126 11.932505 0.000000 0.000000 0.000000 -10.372958 0.780565 -18.147955 1.452186 0.361295 13.700721 -3.096585 -12.792241 17.794133 0.000000 0.000000 0.000000 5.229005 -0.403678 3.558170 -1.701464 0.772161 -6.302514 -0.653469 4.171382 18.022998 4.406008 -0.783000 -23.835730 0.000000 0.000000 0.000000 -1.063950 -4.463038 1.505214 -67.642534 7.091573 -13.793306 -128.646289 -35.719147 75.917384 0.000000 0.000000 0.000000 1.141720 3.236119 1.113150 69.932354 2.628619 -6.447434 130.406424 40.077336 84.167437 0.000000 0.000000 0.000000 
0.139728 0.967893 -0.026157 -2.304147 -7.208024 3.480455 -1.037803 -0.554783 -5.613155 -0.007454 -0.094366 3.451747 6.252290 13.931654 10.418696 0.000000 0.000000 0.000000 -8.102131 1.127570 -18.917038 2.126124 0.368369 16.080611 -2.932658 -11.804538 13.422854 0.000000 0.000000 0.000000 5.884304 -0.392221 3.179775 -2.356470 1.036293 -4.828546 -0.949574 5.018432 16.320626 4.780358 -1.296453 -20.740287 0.000000 0.000000 0.000000 1.341800 -3.086330 1.112631 -69.612610 10.517090 -16.137117 -129.962298 -33.979806 74.339662 0.000000 0.000000 0.000000 0.763105 3.246623 1.117699 70.040562 1.425069 -7.014413 132.377022 39.213437 85.086167 0.000000 0.000000 0.000000 
0.152021 0.970402 -0.028187 -2.413272 -7.601534 3.057347 -2.087093 -0.481262 -4.502178 -0.342321 -0.019300 2.461827 6.891723 14.991352 10.629019 0.000000 0.000000 0.000000 -6.710281 1.309782 -19.217426 1.922558 0.509051 17.613725 -2.293669 -10.447113 12.460901 0.000000 0.000000 0.000000 5.997843 -0.404155 3.362068 -2.471394 1.087761 -4.435851 -1.996525 5.547286 15.969672 4.873838 -1.536846 -18.612594 0.000000 0.000000 0.000000 2.737791 -3.226935 1.225957 -70.993335 11.666897 -17.325211 -129.370436 -33.237178 71.932945 0.000000 0.000000 0.000000 1.145280 3.483017 1.202944 69.395523 1.206226 -6.987430 133.557900 37.826256 84.878031 0.000000 0.000000 0.000000 
0.163370 0.970822 -0.029982 -2.062809 -7.625996 2.325411 -3.205576 -0.355432 -3.110464 -0.518823 0.043569 0.854072 6.582714 14.538635 11.663101 0.000000 0.000000 0.000000 -6.049560 1.341480 -18.733247 0.505255 0.793676 16.530214 -1.646877 -9.803308 14.227979 0.000000 0.000000 0.000000 5.813274 -0.413718 3.719259 -3.162168 1.403698 -3.845359 -2.212726 4.705084 15.318038 4.246873 -1.465906 -16.633999 0.000000 0.000000 0.000000 2.872676 -2.661264 1.038142 -70.840801 12.217695 -17.370680 -129.979462 -32.869877 72.511571 0.000000 0.000000 0.000000 1.298364 3.636331 1.233680 68.113014 0.584384 -7.349342 133.602499 35.963275 80.761241 0.000000 0.000000 0.000000 
0.173997 0.969888 -0.032279 -1.840994 -7.693447 1.653566 -4.405772 -0.300737 -2.480334 -0.366322 0.028068 0.681296 6.621035 14.582834 11.151428 0.000000 0.000000 0.000000 -5.512464 1.400063 -18.781426 -0.122878 0.914286 16.045277 -1.285759 -9.060026 13.828378 0.000000 0.000000 0.000000 5.533333 -0.407080 3.929840 -3.160383 1.417175 -3.367302 -2.697354 4.544912 15.310676 3.961897 -1.541367 -14.493637 0.000000 0.000000 0.000000 3.051106 -3.278701 1.236725 -70.796932 12.400701 -17.451646 -131.831009 -34.763802 78.396776 0.000000 0.000000 0.000000 1.016436 3.191619 1.077762 67.504252 -0.359965 -7.870303 132.552996 35.546599 78.363673 0.000000 0.000000 0.000000 
0.183041 0.967789 -0.035170 -1.883651 -7.844653 0.998641 -5.012824 -0.234364 -1.881319 -0.236970 0.021860 0.297892 6.579574 14.503436 10.983995 0.000000 0.000000 0.000000 -5.457062 1.427209 -19.080128 -0.181199 0.944687 16.207174 -1.092328 -8.399304 12.799533 0.000000 0.000000 0.000000 5.369817 -0.436240 4.510746 -2.941480 1.321906 -3.273082 -3.093902 4.327976 15.718185 4.256871 -1.813001 -14.217836 0.000000 0.000000 0.000000 2.542891 -3.639003 1.326341 -69.935564 11.688595 -16.767736 -130.935267 -37.506594 81.939932 0.000000 0.000000 0.000000 0.785406 2.780590 0.933807 66.324163 -0.688634 -8.018135 131.022179 35.782578 76.403506 0.000000 0.000000 0.000000 
0.189555 0.968406 -0.038290 -2.351211 -6.900750 0.537517 -5.173775 -0.186301 -1.534405 -0.363220 0.031234 0.509737 6.725600 14.826662 11.120036 0.000000 0.000000 0.000000 -5.826690 1.370660 -19.458816 0.614804 0.797555 17.393974 -1.099514 -8.371424 13.136298 0.000000 0.000000 0.000000 5.027527 -0.442243 4.839832 -2.574139 1.161765 -3.642374 -3.010155 3.206040 17.234871 4.154790 -1.741997 -15.262203 0.000000 0.000000 0.000000 1.896860 -3.999615 1.413499 -68.815409 10.516404 -15.760120 -130.805913 -39.546527 85.840742 0.000000 0.000000 0.000000 -0.099891 1.804582 0.626111 66.186103 -1.783327 -8.873765 130.046154 34.727138 72.940354 0.000000 0.000000 0.000000 
0.193213 0.971481 -0.040690 -3.179585 -6.443302 0.229084 -4.910644 -0.155233 -1.313923 0.181062 -0.025939 0.129927 7.120011 15.585869 13.194471 0.000000 0.000000 0.000000 -4.805358 1.567216 -20.501786 1.144378 0.788702 19.889436 -1.054259 -8.236577 13.240152 0.000000 0.000000 0.000000 5.172078 -0.471563 5.162617 -2.087538 0.948353 -3.990298 -3.321836 2.377731 18.094646 4.101689 -1.668081 -16.478592 0.000000 0.000000 0.000000 2.466730 -4.130424 1.449901 -69.196630 10.876897 -16.005832 -129.514969 -40.252720 85.739430 0.000000 0.000000 0.000000 -1.214044 1.085250 0.444394 66.299578 -3.135846 -9.835517 130.052034 33.613892 70.630438 0.000000 0.000000 0.000000 
0.194800 0.974979 -0.042167 -3.864164 -6.059696 0.511845 -3.952940 -0.178141 -1.560419 0.126264 -0.013525 -0.042902 6.942328 15.349866 13.453645 0.000000 0.000000 0.000000 -3.797913 1.726718 -20.801274 0.594067 1.047827 21.886270 -1.195289 -7.656108 10.824839 0.000000 0.000000 0.000000 5.449635 -0.461223 4.795085 -1.484662 0.684345 -5.120040 -3.891305 1.912434 19.214213 4.922876 -2.301504 -16.312979 0.000000 0.000000 0.000000 2.687131 -3.946436 1.380893 -68.685127 11.755410 -16.408178 -128.305979 -39.774008 83.745817 0.000000 0.000000 0.000000 -2.038118 0.868581 0.424164 66.615001 -5.684318 -11.501000 131.108395 31.227546 67.669947 0.000000 0.000000 0.000000 
0.194791 0.976997 -0.042840 -4.396682 -5.535090 0.919166 -3.115922 -0.270232 -2.423716 -0.097695 0.005900 0.200325 7.122092 15.748504 15.249116 0.000000 0.000000 0.000000 -2.576466 1.870636 -20.614596 -1.666177 1.707167 22.080197 -0.320324 -6.173224 11.565419 0.000000 0.000000 0.000000 5.852981 -0.452809 4.377039 -1.987561 0.903585 -5.496522 -3.887335 1.521139 19.769160 5.152992 -2.347155 -17.576053 0.000000 0.000000 0.000000 2.360877 -4.158546 1.445917 -67.866510 11.474080 -16.061152 -127.010856 -39.004967 81.041319 0.000000 0.000000 0.000000 -2.426969 -0.287628 0.077225 66.677124 -8.671896 -13.285044 132.284240 28.273433 63.451656 0.000000 0.000000 0.000000 
0.193922 0.979415 -0.043655 -4.950528 -4.308071 0.676295 -2.578752 -0.276522 -2.584562 -0.267185 0.005315 0.891621 6.531829 14.974106 14.989775 0.000000 0.000000 0.000000 -2.133381 1.785494 -19.502830 -2.097135 1.843610 22.949166 0.232659 -4.809651 11.237889 0.000000 0.000000 0.000000 5.799560 -0.517688 5.117766 -1.716209 0.807400 -6.042485 -4.462491 1.946631 19.525951 8.143025 -4.215436 -17.193248 0.000000 0.000000 0.000000 2.650140 -4.119871 1.457948 -66.595423 10.995778 -15.726780 -124.992427 -38.403619 76.478285 0.000000 0.000000 0.000000 -1.042528 -1.488836 -0.444484 65.102525 -12.686654 -14.860540 134.397067 26.152363 62.690750 0.000000 0.000000 0.000000 
